<svg id="Layer_1" data-name="Layer 1" xmlns="http://www.w3.org/2000/svg" viewBox="0 0 57.38 44.8"><defs><style>.cls-1,.cls-2{fill:none;stroke-linecap:round;stroke-width:2px;}.cls-1{stroke:#fff;}.cls-2{stroke:#6feb9d;}</style></defs><path class="cls-1" d="M45.8,17.93,48,16.13a1,1,0,0,1,1.28,0l1.43,1.23a1,1,0,0,0,1.3,0l1.43-1.23a1,1,0,0,1,1.28,0l1.25,1a1,1,0,0,1,0,1.58L35.22,34.52a1,1,0,0,1-1.23,0L2.63,9.14A1,1,0,0,0,1,9.92V26.47a1,1,0,0,0,1.63.77L34,1.5a1,1,0,0,1,1.23,0l16.17,12" transform="translate(0 -0.27)"/><path class="cls-2" d="M20.15,37.31l.62-.5a.88.88,0,0,1,1.12,0h0a.87.87,0,0,0,1.13,0l.09-.08a.72.72,0,0,1,.92,0h0a.72.72,0,0,1,0,1.14l-7.84,6a1,1,0,0,1-1.24,0L3.38,34.47a1,1,0,0,0-1.63.78v4.33a1,1,0,0,0,1.64.77L15,30.81a1,1,0,0,1,1.19,0l4.58,3.08" transform="translate(0 -0.27)"/></svg>